<?xml version="1.0" standalone="no"?>
<!DOCTYPE svg PUBLIC "-//W3C//DTD SVG 20010904//EN"
 "http://www.w3.org/TR/2001/REC-SVG-20010904/DTD/svg10.dtd">
<svg version="1.0" xmlns="http://www.w3.org/2000/svg"
 width="400.000000pt" height="400.000000pt" viewBox="0 0 400.000000 400.000000"
 preserveAspectRatio="xMidYMid meet">
<metadata>
Created by potrace 1.14, written by Peter Selinger 2001-2017
</metadata>
<g transform="translate(0.000000,400.000000) scale(0.100000,-0.100000)"
fill="#000000" stroke="none">
<path d="M1768 3994 c-2 -1 -56 -5 -121 -8 -121 -7 -146 -9 -277 -27 -118 -16
-129 -18 -235 -44 -456 -109 -736 -312 -913 -660 -58 -114 -119 -288 -138
-393 -3 -14 -7 -29 -9 -33 -3 -3 -7 -28 -10 -55 -3 -27 -8 -57 -11 -67 -3 -10
-7 -32 -9 -50 -3 -18 -7 -54 -11 -82 -10 -77 -12 -101 -21 -230 -13 -218 -7
-718 12 -840 2 -16 7 -52 10 -80 5 -43 20 -133 40 -250 21 -115 96 -328 157
-444 201 -383 570 -605 1128 -681 41 -6 89 -13 105 -15 145 -20 728 -28 920
-13 641 52 1027 218 1281 553 95 126 226 438 249 595 4 25 8 47 10 50 2 3 6
25 10 50 4 25 8 47 10 50 1 3 6 36 10 73 3 37 8 77 10 89 27 139 27 835 0
1048 -2 19 -7 58 -10 85 -8 67 -10 80 -36 205 -106 522 -375 859 -819 1023
-86 32 -215 70 -281 82 -13 3 -35 7 -49 10 -68 13 -211 34 -280 39 -36 3 -92
9 -125 12 -58 6 -592 13 -597 8z"/>
</g>
</svg>
